<?xml version="1.0" encoding="UTF-8" standalone="no"?>
<svg
   xmlns:dc="http://purl.org/dc/elements/1.1/"
   xmlns:cc="http://creativecommons.org/ns#"
   xmlns:rdf="http://www.w3.org/1999/02/22-rdf-syntax-ns#"
   xmlns:svg="http://www.w3.org/2000/svg"
   xmlns="http://www.w3.org/2000/svg"
   viewBox="0 0 1122.52 793.70667"
   height="793.70667"
   width="1122.52"
   xml:space="preserve"
   id="svg2"
   version="1.1"><metadata
     id="metadata8"><rdf:RDF><cc:Work
         rdf:about=""><dc:format>image/svg+xml</dc:format><dc:type
           rdf:resource="http://purl.org/dc/dcmitype/StillImage" /></cc:Work></rdf:RDF></metadata><defs
     id="defs6"><clipPath
       id="clipPath18"
       clipPathUnits="userSpaceOnUse"><path
         id="path16"
         d="M 0,595.28 H 841.89 V 0 H 0 Z" /></clipPath></defs><g
     transform="matrix(1.3333333,0,0,-1.3333333,0,793.70667)"
     id="g10"><g
       id="g12"><g
         clip-path="url(#clipPath18)"
         id="g14"><g
           transform="translate(479.5449,254.6153)"
           id="g20"><path
             id="path22"
             style="fill:#90c84b;fill-opacity:1;fill-rule:nonzero;stroke:none"
             d="m 0,0 c -33.149,-17.231 -74.229,-20.49 -108.427,-4.1 -32.328,15.502 -58.637,47.067 -66.318,82.342 -7.539,34.647 1.337,72.312 23.127,100.275 24.533,31.51 63.974,47.4 103.543,44.807 2.847,-0.185 5.228,-2.235 5.228,-5.229 v -52.416 c 0,-3.614 -3.315,-5.655 -6.617,-5.04 -19.314,3.612 -43.14,-6.037 -53.715,-21.587 -12.201,-17.945 -14.289,-37.174 -6.92,-57.423 6.41,-12.825 15.313,-22.73 28.789,-29.116 13.524,-6.39 32.214,-7.26 46.201,-0.16 23.38,11.87 34.065,32.147 34.065,58.273 v 89.529 c 0,1.833 0.799,3.122 1.928,3.958 1.45,1.507 3.661,2.116 5.942,0.558 C 40.542,181.639 63.763,141.617 61.283,99.994 58.864,59.4 36.82,19.14 0,0 m -57.957,255.236 c -83.308,0 -150.835,-67.537 -150.835,-150.84 0,-83.301 67.527,-150.847 150.835,-150.847 83.299,0 150.835,67.546 150.835,150.847 0,83.303 -67.536,150.84 -150.835,150.84" /></g><g
           transform="translate(35.061,145.8242)"
           id="g24"><path
             id="path26"
             style="fill:#737577;fill-opacity:1;fill-rule:nonzero;stroke:none"
             d="m 0,0 c -3.491,0 -6.556,-0.629 -9.192,-1.876 -2.638,-1.251 -4.669,-3.018 -6.093,-5.304 -2.211,-3.501 -3.314,-9.107 -3.314,-16.82 0,-8.427 1.479,-14.587 4.436,-18.479 2.956,-3.892 7.678,-5.837 14.163,-5.837 6.344,0 10.992,1.945 13.951,5.837 2.957,3.892 4.435,9.981 4.435,18.266 0,8.432 -1.462,14.572 -4.381,18.426 C 11.082,-1.928 6.415,0 0,0 m -0.106,11.974 c 6.414,0 12.061,-0.95 16.943,-2.834 4.879,-1.89 8.675,-4.616 11.384,-8.177 2.208,-2.924 3.901,-6.627 5.077,-11.119 1.177,-4.488 1.765,-9.513 1.765,-15.073 0,-6.272 -0.945,-11.865 -2.832,-16.782 -1.89,-4.917 -4.615,-8.8 -8.179,-11.648 -2.709,-2.14 -6.022,-3.779 -9.941,-4.917 -3.92,-1.144 -8.303,-1.715 -13.147,-1.715 -6.913,0 -12.954,1.072 -18.12,3.207 -5.167,2.14 -9.139,5.238 -11.919,9.301 -4.133,5.843 -6.2,13.575 -6.2,23.197 0,6.91 0.909,12.881 2.726,17.906 1.818,5.022 4.508,8.923 8.072,11.705 2.777,2.277 6.27,4.006 10.475,5.182 4.203,1.176 8.835,1.767 13.896,1.767" /></g><g
           transform="translate(116.7275,123.5909)"
           id="g28"><path
             id="path30"
             style="fill:#737577;fill-opacity:1;fill-rule:nonzero;stroke:none"
             d="m 0,0 c 2.067,0 3.722,0.142 4.972,0.425 1.244,0.288 2.26,0.821 3.047,1.605 0.996,0.784 1.761,1.98 2.297,3.581 0.534,1.601 0.801,3.401 0.801,5.399 0,2.352 -0.463,4.345 -1.389,5.985 -0.928,1.639 -2.21,2.744 -3.85,3.316 -1.211,0.424 -3.063,0.637 -5.557,0.637 h -20.95 l 0,-20.948 z m -20.629,-37.628 h -15.18 v 71.297 h 35.597 c 3.134,0 5.807,-0.09 8.015,-0.265 2.209,-0.179 4.117,-0.519 5.72,-1.015 1.604,-0.501 3.009,-1.177 4.221,-2.032 1.212,-0.855 2.423,-1.922 3.635,-3.207 4.277,-4.633 6.414,-10.193 6.414,-16.673 0,-3.78 -0.694,-7.308 -2.085,-10.586 -1.389,-3.278 -3.333,-5.952 -5.824,-8.016 -1.07,-0.854 -2.123,-1.587 -3.155,-2.191 -1.033,-0.605 -2.173,-1.087 -3.42,-1.441 -1.247,-0.359 -2.655,-0.609 -4.223,-0.751 -1.568,-0.142 -3.349,-0.213 -5.345,-0.213 h -24.37 z" /></g><g
           transform="translate(207.6948,144.5391)"
           id="g32"><path
             id="path34"
             style="fill:#737577;fill-opacity:1;fill-rule:nonzero;stroke:none"
             d="m 0,0 h -19.782 c -2.56,0 -4.752,-0.09 -6.566,-0.265 -1.823,-0.179 -3.391,-0.463 -4.706,-0.854 -1.321,-0.393 -2.443,-0.926 -3.368,-1.607 -0.926,-0.675 -1.781,-1.511 -2.565,-2.507 -0.572,-0.714 -1.015,-1.394 -1.337,-2.032 -0.321,-0.642 -0.588,-1.375 -0.801,-2.191 -0.214,-0.822 -0.394,-1.805 -0.536,-2.943 -0.141,-1.138 -0.285,-2.603 -0.427,-4.383 H 0 v -12.721 h -40.088 c 0.286,-3.06 0.855,-5.63 1.712,-7.694 0.855,-2.07 2.1,-3.741 3.741,-5.027 1.637,-1.279 3.722,-2.205 6.252,-2.777 2.527,-0.571 5.616,-0.854 9.243,-0.854 H 0 v -12.721 h -19.782 c -3.769,0 -7.104,0.141 -9.99,0.43 -2.886,0.284 -5.435,0.727 -7.643,1.332 -2.21,0.605 -4.151,1.426 -5.826,2.46 -1.675,1.031 -3.224,2.296 -4.65,3.793 -3.064,3.208 -5.397,7.2 -7.001,11.975 -1.603,4.771 -2.406,10.117 -2.406,16.031 0,12.9 4.027,22.735 12.08,29.503 1.282,1.073 2.565,1.98 3.847,2.731 1.283,0.746 2.69,1.332 4.223,1.761 1.533,0.425 3.224,0.747 5.078,0.964 1.852,0.212 3.989,0.317 6.412,0.317 l 25.658,0 z" /></g><g
           transform="translate(233.9858,85.9629)"
           id="g36"><path
             id="path38"
             style="fill:#737577;fill-opacity:1;fill-rule:nonzero;stroke:none"
             d="M 0,0 H -14.322 V 71.297 H 5.068 L 33.565,18.172 V 71.297 H 47.892 L 47.892,0 H 29.248 L 0,52.271 Z" /></g><g
           transform="translate(338.3135,98.6836)"
           id="g40"><path
             id="path42"
             style="fill:#737577;fill-opacity:1;fill-rule:nonzero;stroke:none"
             d="m 0,0 h 15.073 c 3.348,0 6.216,0.392 8.606,1.176 2.385,0.784 4.222,1.961 5.503,3.528 1.497,1.852 2.692,4.417 3.585,7.695 0.888,3.278 1.332,6.769 1.332,10.477 0,4.346 -0.586,8.299 -1.762,11.865 -1.176,3.562 -2.763,6.164 -4.757,7.803 -1.426,1.21 -3.098,2.064 -5.025,2.565 -1.923,0.496 -4.417,0.746 -7.482,0.746 H 0 Z m 15.073,58.576 c 7.34,0 13.254,-0.765 17.746,-2.296 4.487,-1.535 8.124,-4.043 10.901,-7.539 1.072,-1.28 2.031,-2.867 2.886,-4.756 0.855,-1.884 1.606,-3.972 2.244,-6.25 0.643,-2.281 1.124,-4.69 1.445,-7.216 0.322,-2.533 0.482,-5.117 0.482,-7.752 0,-3.136 -0.269,-6.414 -0.803,-9.834 -0.534,-3.42 -1.266,-6.448 -2.191,-9.083 -1.356,-3.992 -3.26,-7.18 -5.72,-9.571 -2.457,-2.384 -5.612,-4.184 -9.457,-5.398 -1.002,-0.355 -2.031,-0.624 -3.103,-0.798 -1.068,-0.18 -2.263,-0.341 -3.581,-0.482 -1.318,-0.147 -2.867,-0.232 -4.648,-0.27 -1.78,-0.032 -3.849,-0.052 -6.201,-0.052 h -30.25 v 71.297 z" /></g><path
           id="path44"
           style="fill:#737577;fill-opacity:1;fill-rule:nonzero;stroke:none"
           d="m 399.78,157.26 h 15.176 V 85.963 H 399.78 Z" /><g
           transform="translate(450.7627,115.2539)"
           id="g46"><path
             id="path48"
             style="fill:#737577;fill-opacity:1;fill-rule:nonzero;stroke:none"
             d="M 0,0 H 20.312 L 10.155,24.906 Z M 1.394,42.006 H 18.813 L 48.316,-29.291 H 30.575 l -6.844,16.57 H -3.42 l -6.839,-16.57 h -17.847 z" /></g><g
           transform="translate(521.209,157.2598)"
           id="g50"><path
             id="path52"
             style="fill:#737577;fill-opacity:1;fill-rule:nonzero;stroke:none"
             d="m 0,0 v -39.976 c 0.142,-3.135 0.27,-5.578 0.373,-7.321 0.108,-1.747 0.283,-3.141 0.534,-4.171 0.25,-1.034 0.572,-1.8 0.963,-2.3 0.393,-0.496 0.945,-1.067 1.658,-1.71 0.709,-0.637 1.46,-1.157 2.244,-1.549 0.785,-0.392 1.762,-0.695 2.938,-0.907 1.176,-0.212 2.603,-0.373 4.279,-0.482 1.673,-0.108 3.723,-0.16 6.146,-0.16 H 33.674 V -71.297 H 17.529 c -2.494,0 -4.558,0.02 -6.197,0.052 -1.64,0.038 -3.047,0.09 -4.224,0.161 -1.175,0.07 -2.172,0.198 -2.994,0.373 -0.817,0.18 -1.691,0.378 -2.617,0.591 -3.637,0.996 -6.754,2.673 -9.352,5.025 -2.603,2.348 -4.473,5.234 -5.612,8.658 -0.571,1.639 -1.001,3.865 -1.284,6.679 -0.284,2.816 -0.431,6.074 -0.431,9.782 l 0,39.976 z" /></g><g
           transform="translate(593.6816,145.8242)"
           id="g54"><path
             id="path56"
             style="fill:#737577;fill-opacity:1;fill-rule:nonzero;stroke:none"
             d="m 0,0 c -3.491,0 -6.557,-0.629 -9.192,-1.876 -2.636,-1.251 -4.667,-3.018 -6.093,-5.304 -2.211,-3.501 -3.312,-9.107 -3.312,-16.82 0,-8.427 1.474,-14.587 4.436,-18.479 2.957,-3.892 7.676,-5.837 14.161,-5.837 6.344,0 10.991,1.945 13.948,5.837 2.957,3.892 4.441,9.981 4.441,18.266 0,8.432 -1.465,14.572 -4.384,18.426 C 11.081,-1.928 6.414,0 0,0 m -0.104,11.974 c 6.41,0 12.059,-0.95 16.938,-2.834 4.885,-1.89 8.677,-4.616 11.389,-8.177 2.206,-2.924 3.901,-6.627 5.077,-11.119 1.177,-4.488 1.763,-9.513 1.763,-15.073 0,-6.272 -0.946,-11.865 -2.835,-16.782 -1.889,-4.917 -4.615,-8.8 -8.176,-11.648 -2.707,-2.14 -6.023,-3.779 -9.944,-4.917 -3.915,-1.144 -8.298,-1.715 -13.145,-1.715 -6.915,0 -12.951,1.072 -18.119,3.207 -5.167,2.14 -9.14,5.238 -11.917,9.301 -4.133,5.843 -6.202,13.575 -6.202,23.197 0,6.91 0.912,12.881 2.725,17.906 1.819,5.022 4.506,8.923 8.072,11.705 2.778,2.277 6.269,4.006 10.477,5.182 4.204,1.176 8.833,1.767 13.897,1.767" /></g><g
           transform="translate(700.6826,128.295)"
           id="g58"><path
             id="path60"
             style="fill:#737577;fill-opacity:1;fill-rule:nonzero;stroke:none"
             d="m 0,0 v -42.332 h -31.851 c -2.782,0 -5.238,0.09 -7.378,0.269 -2.139,0.175 -4.062,0.477 -5.772,0.908 -1.71,0.425 -3.278,0.996 -4.704,1.71 -1.427,0.713 -2.777,1.6 -4.063,2.673 -3.632,2.848 -6.41,6.801 -8.336,11.865 -1.923,5.059 -2.886,11.044 -2.886,17.959 0,6.84 0.944,12.791 2.834,17.85 1.885,5.059 4.647,9.05 8.285,11.974 5.129,4.058 12.682,6.089 22.658,6.089 H 0 V 16.244 h -29.395 c -6.768,0 -11.615,-1.691 -14.539,-5.073 -2.919,-3.387 -4.379,-8.965 -4.379,-16.731 0,-4.492 0.445,-8.483 1.333,-11.973 0.893,-3.491 2.159,-6.094 3.797,-7.804 2.778,-2.848 7.553,-4.274 14.323,-4.274 h 13.683 v 16.89 H -35.058 V 0 Z" /></g><g
           transform="translate(727.9414,114.502)"
           id="g62"><path
             id="path64"
             style="fill:#737577;fill-opacity:1;fill-rule:nonzero;stroke:none"
             d="m 0,0 c 0,-3.49 0.303,-6.196 0.907,-8.124 0.605,-1.922 1.62,-3.562 3.047,-4.917 1.426,-1.209 3.226,-2.191 5.399,-2.938 2.172,-0.747 4.473,-1.125 6.896,-1.125 3.49,0 6.499,0.605 9.031,1.819 2.528,1.215 4.294,2.887 5.29,5.026 0.43,0.996 0.751,2.315 0.964,3.953 0.213,1.64 0.321,3.742 0.321,6.306 V 42.758 H 47.032 V 0.752 c 0,-5.773 -0.604,-10.463 -1.814,-14.058 -1.214,-3.599 -3.174,-6.542 -5.881,-8.818 -2.853,-2.353 -6.183,-4.101 -9.994,-5.238 -3.813,-1.144 -8.285,-1.71 -13.415,-1.71 -11.261,0 -19.456,2.564 -24.586,7.694 -1.214,1.285 -2.243,2.584 -3.099,3.901 -0.854,1.319 -1.535,2.797 -2.031,4.436 -0.5,1.639 -0.855,3.49 -1.072,5.56 -0.212,2.068 -0.321,4.454 -0.321,7.161 V 42.758 H 0 Z" /></g><g
           transform="translate(842.1035,144.5391)"
           id="g66"><path
             id="path68"
             style="fill:#737577;fill-opacity:1;fill-rule:nonzero;stroke:none"
             d="m 0,0 h -19.777 c -2.565,0 -4.757,-0.09 -6.571,-0.265 -1.818,-0.179 -3.386,-0.463 -4.705,-0.854 -1.317,-0.393 -2.441,-0.926 -3.367,-1.607 -0.926,-0.675 -1.781,-1.511 -2.565,-2.507 -0.572,-0.714 -1.016,-1.394 -1.336,-2.032 -0.322,-0.642 -0.586,-1.375 -0.804,-2.191 -0.212,-0.822 -0.392,-1.805 -0.533,-2.943 -0.142,-1.138 -0.283,-2.603 -0.426,-4.383 H 0 v -12.721 h -40.084 c 0.284,-3.06 0.855,-5.63 1.71,-7.694 0.855,-2.07 2.103,-3.741 3.741,-5.027 1.64,-1.279 3.723,-2.205 6.254,-2.777 2.527,-0.571 5.611,-0.854 9.244,-0.854 H 0 v -12.721 h -19.777 c -3.775,0 -7.105,0.141 -9.991,0.43 -2.89,0.284 -5.436,0.727 -7.647,1.332 -2.206,0.605 -4.151,1.426 -5.824,2.46 -1.677,1.031 -3.226,2.296 -4.648,3.793 -3.065,3.208 -5.399,7.2 -7.005,11.975 -1.601,4.771 -2.404,10.117 -2.404,16.031 0,12.9 4.025,22.735 12.078,29.503 1.284,1.073 2.57,1.98 3.85,2.731 1.284,0.746 2.687,1.332 4.222,1.761 1.531,0.425 3.222,0.747 5.079,0.964 1.851,0.212 3.991,0.317 6.414,0.317 l 25.653,0 z" /></g></g></g></g></svg>